<svg enable-background="new 0 0 154.2 55.8" viewBox="0 0 154.2 55.8" xmlns="http://www.w3.org/2000/svg"><g fill="#fff"><path d="m17 5.4v-3.6c0-.4.5-.6.8-.4l2.4 2v9.7c0 .2-.3.3-.4.1l-1.4-2c-.2-.3-.4-.8-.4-1.2v-2.4l-.7-1c-.2-.2-.3-.7-.3-1.2z"/><path d="m6.5 43.4h2.4v3.5h-2.4z"/><path d="m9.5 43.4h2.4v3.5h-2.4z"/><path d="m12.4 43.4h2.4v3.5h-2.4z"/><path d="m3.6 43.4h2.4v3.5h-2.4z"/><path d="m17.5 15.3c-6.9-.2-14.8-4-15.7-8.6 0-.2.2-.3.3-.1 2.4 3.8 7.5 6.8 19.7 7.4v-7l-.9-1.7c-.1-.3 0-.6.3-.6h17.4v.9c0 3.9-5.8 7.7-12.3 8.6-.2 0-.2.3 0 .4 6 1.2 12.3 4.8 12.3 8.9 0 5-6 9.1-13.4 9.1 5.5 0 13.4 4 13.4 8.2v4h-1.7v2.1h-2.4v-2.5h-.8v2.5h-2.4v-2.5h-.5v2.5h-2.4v-2.5h-.6v2.5h-2.4v-2.5h-.7v2.5h-2.4v-2.5h-.4c0-4.4-.9-8-2.1-8.4-.1 0-.2.1-.2.2v14.6c0 .2-.3.3-.4.1l-.9-2.9c-.3-.7-1-1.2-1.8-1.2h-1.1v-3.5h2.1l-.1-6.3c0-.2.1-.5.3-.6l.1-.1v-1.1c-6.8 0-17.4-3.1-16.1-11.6 0-.2.2-.4.4-.4.2 0 .4.2.4.4.4 5.4 8.6 8.5 19.5 8.5v-11c0-2.6-.9-4.5-1.9-4.9-.2-.1-.3.1-.3.2l.2 13.7c0 .4-.5.5-.7.2-.7-1.2-1.5-3.5-1.5-6.5l-.2-.2c-.1-.1-.1-.2-.1-.4z"/><path d="m50.9 2.8s-9.6-.6-9.6 9.6 9.6 9.6 9.6 9.6h15.7s5.1-.3 5.1 4.3-5.1 4.3-5.1 4.3h-23.2c-1.1 0-2 1.2-2 2.6s.9 2.6 2 2.6h23.2s9.6.6 9.6-9.6-9.6-9.6-9.6-9.6h-15.7s-5.1.3-5.1-4.3 5.1-4.3 5.1-4.3h23.2c1.1 0 2-1.2 2-2.6s-.9-2.6-2-2.6z"/><path d="m108.7 30.9c-1.9-1.3-2.3-1.6-4.4-3 1.8-1.7 2.9-2.9 4-4.5.3-.4.4-1 .4-1.6 0-1.4-1-2.6-2.3-2.6-.5 0-1 .2-1.4.6-1.5 1.8-1.7 2.4-5.1 5.3-4.1-2.9-4.3-3.2-7.1-5.7 4.5-.6 8-4.1 8-8.3 0-4.6-4.2-8.4-9.5-8.4s-9.3 3.9-9.3 8.5c0 2.2.7 4.5 2.2 6-4.2 1.7-7.2 5-7.2 9.1 0 5.3 5.2 9.6 11.6 9.6 4.1 0 9-2 11.6-4.5l6.5 4.3c.3.1.6.2.9.2 1.3 0 2.3-1.2 2.3-2.6-.1-1.1-.5-1.9-1.2-2.4zm-17.4-22.8c2.8 0 5.1 1.4 5.1 3.1s-4.4 3.5-7.5 4.1c-1.6-1.9-2.4-2.4-2.4-4.1s2-3.1 4.8-3.1zm-2.3 22.3c-4.5 0-7.3-1.5-7.3-4 0-2.1 1.5-3.4 6-4.9 3.9 3.9 4.5 4.1 8.1 6.9-.3.2-2.3 2-6.8 2z"/><path d="m152 21.9c0 10.3-5.2 13.9-11.5 13.9-4 0-7.5-1.7-9.5-5.2-2.1 3.6-5.6 5.2-9.6 5.2-6.4 0-11.5-3.5-11.5-13.9v-16.5c0-1.4 1-2.6 2.3-2.6s2.3 1.2 2.3 2.6v16.5c0 6.3 3.2 8.6 7.2 8.6s7.2-2.3 7.2-8.6v-16.5c0-1.4 1-2.6 2.3-2.6s2.3 1.2 2.3 2.6v16.5c0 6.3 3.2 8.6 7.2 8.6s7.2-2.3 7.2-8.6l-.1-16.5c0-1.4 1-2.6 2.3-2.6s2.3 1.2 2.3 2.6v16.5z"/><path d="m110.5 38.5c-.4 0-.6-.4-.6-.8s.3-.8.6-.8h8c.4 0 .6.4.6.8s-.3.8-.6.8h-3.5v8.8c0 .4-.2.8-.6.8s-.6-.4-.6-.8v-8.8z"/><path d="m121.3 38.5c-.4 0-.6-.4-.6-.8s.3-.8.6-.8h4.6c.4 0 .6.4.6.8s-.3.8-.6.8h-1.8v8h1.8c.4 0 .6.4.6.8s-.3.8-.6.8h-4.6c-.4 0-.6-.4-.6-.8s.3-.8.6-.8h1.7v-7.9h-1.7z"/><path d="m43 36.9c-.3 0-.6.4-.6.8v5.6h-.8c-.4 0-.6.4-.6.8s.3.8.6.8h.8v2.3c0 .4.2.8.6.8.3 0 .6-.4.6-.8v-2.2h6c.4 0 .6-.4.6-.8s-.3-.8-.6-.8h-6v-4.8h7.6c.4 0 .6-.4.6-.8s-.3-.8-.6-.8h-8.2z"/><path d="m84.9 37.7c0-.4.2-.8.6-.8.3 0 .6.4.6.8v9.6c0 .4-.2.8-.6.8-.1 0-.3-.1-.4-.2l-7.2-8.6v8c0 .4-.2.8-.6.8s-.6-.4-.6-.8v-9.6c0-.4.2-.8.6-.8.1 0 .3.1.3.2l7.2 8.6v-8z"/><path d="m64 42.5c0 3.1-1.1 5.6-5.8 5.6s-5.8-2.5-5.8-5.6 1.1-5.6 5.8-5.6 5.8 2.5 5.8 5.6zm-5.8-4c-3.7 0-4.6 1.8-4.6 4s.9 4 4.6 4 4.6-1.8 4.6-4-.9-4-4.6-4z"/><path d="m138.8 42.5c0 3.1-1.1 5.6-5.8 5.6s-5.8-2.5-5.8-5.6 1.1-5.6 5.8-5.6 5.8 2.5 5.8 5.6zm-5.7-4c-3.7 0-4.6 1.8-4.6 4s.9 4 4.6 4 4.6-1.8 4.6-4-.9-4-4.6-4z"/><path d="m75.2 42.5c0 3.1-.9 5.6-4.8 5.6s-4.8-2.5-4.8-5.6v-4.8c0-.4.2-.8.6-.8s.6.4.6.8v4.8c0 2.2.7 4 3.7 4s3.7-1.8 3.7-4v-4.8c0-.4.2-.8.6-.8s.6.4.6.8z"/><path d="m88.2 48.1c-.3 0-.6-.4-.6-.8v-9.6c0-.4.2-.8.6-.8h3.5c4.6 0 5.8 2.5 5.8 5.6s-1.1 5.6-5.8 5.6zm3.6-1.6c3.7 0 4.6-1.8 4.6-4s-.9-4-4.6-4h-3v7.9h3z"/><path d="m108.9 47.3c0 .4-.2.8-.6.8-.3 0-.6-.4-.6-.8v-2.3h-7.4v2.3c0 .4-.2.8-.6.8s-.6-.4-.6-.8v-4.8c0-3.1.9-5.6 4.8-5.6s4.8 2.5 4.8 5.6zm-8.6-3.9h7.4v-.9c0-2.2-.7-4-3.7-4s-3.7 1.8-3.7 4z"/><path d="m148.4 37.7c0-.4.2-.8.6-.8.3 0 .6.4.6.8v9.6c0 .4-.2.8-.6.8-.1 0-.3-.1-.4-.2l-7.2-8.6v8c0 .4-.2.8-.6.8-.3 0-.6-.4-.6-.8v-9.6c0-.4.2-.8.6-.8.1 0 .3.1.3.2l7.2 8.6v-8z"/><path d="m43.7 52.8c.3.3.8.5 1.3.5.2 0 .4 0 .5-.2.1-.1.2-.2.2-.4 0-.4-.3-.5-.8-.7s-.9-.5-.9-1.1c0-.4.2-.7.5-.9s.6-.3.9-.3c.4 0 .9.1 1.2.4l-.1.7c-.3-.3-.8-.4-1.1-.4-.2 0-.3 0-.4.1s-.2.2-.2.4c0 .3.3.4.8.7.5.2.9.5.9 1.1 0 .4-.2.7-.4.9-.3.2-.6.3-1 .3-.5 0-1-.2-1.3-.4z"/><path d="m55.7 49.9h.7l-.7 4.1h-.7z"/><path d="m66.6 51.9c-.2-.3-.4-.7-.5-1-.1.4-.1.8-.2 1.2l-.3 1.8h-.7l.7-4.1h.7l1.1 2c.2.3.4.7.5 1 .1-.4.1-.8.2-1.2l.3-1.8h.7l-.7 4.1h-.7z"/><path d="m80.6 53.8c-.3.1-.6.2-1 .2-1.1 0-2-.6-2-1.8 0-.6.2-1.3.7-1.7.4-.4 1-.6 1.6-.6.4 0 .8.1 1.2.3l-.1.6c-.3-.2-.7-.3-1.1-.3s-.8.2-1.1.4c-.3.3-.5.8-.5 1.2 0 .8.5 1.2 1.3 1.2.4 0 .7-.1 1-.2z"/><path d="m90.2 49.9h2.4l-.1.6h-1.7l-.2 1h1.4v.6h-1.4l-.2 1.2h1.6l-.1.6h-2.4z"/><path d="m111.9 50.7-.9.3.1-.7 1.7-.5-.7 4.1h-.7z"/><path d="m135.6 51.8c.3.2.5.5.5.9s-.2.7-.5 1c-.3.2-.7.3-1.1.3-.8 0-1.4-.4-1.4-1.1 0-.5.4-.9.9-1.1-.3-.2-.4-.4-.4-.8 0-.3.2-.7.5-.9s.6-.3 1-.3c.7 0 1.3.4 1.3 1-.1.5-.3.8-.8 1zm-1 1.6c.3 0 .5-.1.6-.2s.2-.3.2-.5c0-.4-.3-.6-.7-.6-.2 0-.5.1-.6.2s-.2.3-.2.5c0 .3.3.6.7.6zm.9-2c.1-.1.2-.3.2-.4 0-.3-.3-.5-.6-.5-.2 0-.4.1-.5.2s-.2.3-.2.4c0 .3.3.5.6.5.2 0 .4-.1.5-.2z"/><path d="m146.7 51.4c.6 0 1.2.4 1.2 1.2 0 .4-.2.8-.5 1s-.7.4-1.1.4c-.7 0-1.4-.4-1.4-1.3 0-.6.3-1.1.7-1.5l1.1-1.3h.9c-.3.4-.6.7-.9 1.1-.3.3-.6.7-.8 1-.2.2-.3.5-.3.8 0 .4.3.6.7.6.2 0 .4-.1.6-.2.1-.1.2-.3.2-.5 0-.4-.3-.6-.7-.6-.1 0-.2 0-.2 0z"/><path d="m123 52.4c-.6 0-1.2-.4-1.2-1.2 0-.4.2-.8.5-1s.7-.4 1.1-.4c.7 0 1.4.4 1.4 1.3 0 .6-.3 1.1-.7 1.5l-1.1 1.3h-.9c.3-.4.6-.7.9-1.1.3-.3.6-.7.8-1 .2-.2.3-.5.3-.8 0-.4-.3-.6-.7-.6-.2 0-.4.1-.6.2-.1.1-.2.3-.2.5 0 .4.3.6.7.6h.2z"/></g></svg>